<?xml version="1.0" encoding="utf-8"?>
<!-- Generator: Adobe Illustrator 25.4.1, SVG Export Plug-In . SVG Version: 6.00 Build 0)  -->
<svg version="1.1" id="Layer_1" xmlns="http://www.w3.org/2000/svg" xmlns:xlink="http://www.w3.org/1999/xlink" x="0px" y="0px"
	 viewBox="0 0 481.6 114" style="enable-background:new 0 0 481.6 114;" xml:space="preserve">
<style type="text/css">
	.st0{fill:#1E6EE4;}
</style>
<g>
	<g>
		<path class="st0" d="M56.7,64.3c0,0-34.5-9.9-43.7-12.5C3.8,49.2-0.4,46.1,0,38.5l0,0c0.3-5.4,4-9.6,13.9-11.3
			C67.4,17.9,138.1,5.3,138.1,5.3l4.1,21.9l-85.5,15c0,0,8.6,1.1,15.6,3.4c7,2.2,10.3,6.7,11.2,11.5c0.9,5.1-0.1,8.9-3.4,13.3
			C68,86.9,53.7,105.3,46.9,114L29,100.4L56.7,64.3z"/>
		<path class="st0" d="M151.7,5.2V0.7H150V0h4.2v0.7h-1.7v4.5H151.7z"/>
		<path class="st0" d="M156.3,1.2v4h-0.7V0h0.9l1.8,4l0,0l1.8-4h0.9v5.2h-0.7v-4l0,0l-1.7,4h-0.4L156.3,1.2L156.3,1.2z"/>
	</g>
	<path class="st0" d="M322,99.5h-7.8V70.4h-12.1v-6.2h32v6.2h-12v29.1H322z"/>
	<path class="st0" d="M275.5,84.1v15.4h-7.9V64.2h7.9v13.7l0,0L290,64.2h8.9l-17,17.1l17.9,18.2h-9L275.5,84.1L275.5,84.1
		L275.5,84.1z"/>
	<path class="st0" d="M161.9,69c1.1-1.7,2.5-3.1,4.3-4.1s3.9-1.4,6.2-1.4c2.2,0,4.2,0.4,6,1.3c1.9,0.9,3.5,2.1,4.8,3.7
		c1.4,1.6,2.4,3.6,3.2,5.8c0.8,2.3,1.2,4.8,1.2,7.6c0,2.8-0.4,5.4-1.2,7.7c-0.8,2.3-1.8,4.2-3.2,5.8c-1.4,1.6-3,2.9-4.8,3.7
		c-1.9,0.9-3.9,1.3-6,1.3c-2.4,0-4.5-0.5-6.2-1.4c-1.8-1-3.2-2.3-4.3-4.1V111l-7.8,2V64.2h7.8V69z M162.3,87.2
		c0.5,1.5,1.1,2.8,1.9,3.8c0.8,1,1.8,1.8,2.9,2.3c1.1,0.5,2.3,0.8,3.6,0.8c2.8,0,4.9-1.1,6.4-3.2c1.5-2.2,2.3-5.1,2.3-8.9
		c0-3.7-0.8-6.7-2.3-8.8c-1.5-2.2-3.7-3.2-6.4-3.2c-1.3,0-2.5,0.2-3.6,0.7s-2.1,1.2-2.9,2.2c-0.8,1-1.5,2.2-1.9,3.8
		s-0.7,3.3-0.7,5.3C161.6,83.9,161.8,85.7,162.3,87.2z"/>
	<path class="st0" d="M359.2,64.6c2.1,0.7,3.9,1.9,5.6,3.4c1.6,1.5,3,3.4,4,5.7c1,2.3,1.5,5.1,1.5,8.3s-0.5,5.9-1.5,8.3
		c-1,2.3-2.3,4.2-4,5.7c-1.6,1.5-3.5,2.6-5.6,3.3c-2.1,0.7-4.2,1.1-6.3,1.1c-2.2,0-4.3-0.4-6.3-1.1c-2.1-0.7-3.9-1.8-5.6-3.3
		c-1.6-1.5-3-3.4-4-5.7c-1-2.3-1.5-5.1-1.5-8.3s0.5-5.9,1.5-8.3c1-2.3,2.3-4.2,4-5.7c1.6-1.5,3.5-2.6,5.6-3.4
		c2.1-0.7,4.2-1.1,6.3-1.1C355,63.4,357.1,63.8,359.2,64.6z M344.3,87.3c0.5,1.5,1.2,2.8,2,3.7c0.9,1,1.9,1.7,3,2.2s2.3,0.8,3.6,0.8
		c1.2,0,2.4-0.2,3.6-0.8c1.1-0.5,2.1-1.2,3-2.2s1.5-2.2,2-3.7s0.8-3.3,0.8-5.3s-0.3-3.8-0.8-5.3s-1.2-2.8-2-3.8
		c-0.9-1-1.9-1.8-3-2.3s-2.3-0.8-3.6-0.8c-1.2,0-2.4,0.2-3.6,0.8c-1.1,0.5-2.1,1.3-3,2.3s-1.5,2.3-2,3.8s-0.8,3.3-0.8,5.3
		S343.8,85.8,344.3,87.3z"/>
	<path class="st0" d="M382.2,69c1-1.7,2.5-3.1,4.3-4.1s3.9-1.4,6.2-1.4c2.2,0,4.1,0.4,6,1.3s3.5,2.1,4.8,3.7
		c1.4,1.6,2.4,3.6,3.2,5.8c0.8,2.3,1.2,4.8,1.2,7.6c0,2.8-0.4,5.4-1.2,7.7c-0.8,2.3-1.8,4.2-3.2,5.8c-1.4,1.6-3,2.9-4.8,3.7
		c-1.9,0.9-3.9,1.3-6,1.3c-2.4,0-4.4-0.5-6.2-1.4c-1.8-1-3.2-2.3-4.3-4.1V111l-7.8,2V64.2h7.8V69z M382.6,87.2
		c0.5,1.5,1.1,2.8,1.9,3.8s1.8,1.8,2.9,2.3s2.3,0.8,3.6,0.8c2.8,0,4.9-1.1,6.4-3.2c1.5-2.2,2.3-5.1,2.3-8.9c0-3.7-0.8-6.7-2.3-8.8
		c-1.5-2.2-3.7-3.2-6.4-3.2c-1.3,0-2.5,0.2-3.6,0.7s-2.1,1.2-2.9,2.2s-1.5,2.2-1.9,3.8c-0.5,1.5-0.7,3.3-0.7,5.3
		C381.9,83.9,382.1,85.7,382.6,87.2z"/>
	<path class="st0" d="M437.3,99.5V75.1l-16.8,24.5h-7.8V64.2h7.8v24.6l16.8-24.6h7.8v35.3H437.3z"/>
	<path class="st0" d="M473.8,99.5V87.3h-7l-7.2,12.2h-8.9l8.9-14.2c-1.9-0.7-3.4-1.9-4.7-3.6c-1.2-1.6-1.8-3.7-1.8-6.3
		c0-3.6,1.2-6.4,3.5-8.3s5.7-2.9,10.1-2.9h15.1v35.3H473.8L473.8,99.5z M462.8,71.8c-1.2,1-1.8,2.4-1.8,4.2c0,1.9,0.6,3.2,1.7,4
		s2.7,1.2,4.7,1.2h6.4V70.4h-6.1C465.6,70.4,464,70.9,462.8,71.8z"/>
	<path class="st0" d="M199.4,99.9c-1.6-0.5-3-1.2-4.1-2.1c-1.2-0.9-2.1-2-2.7-3.3c-0.6-1.3-1-2.7-1-4.4c0-2.2,0.6-4,1.9-5.4
		c1.3-1.4,3-2.6,5.2-3.5s4.7-1.6,7.6-2.1s5.9-0.9,9.2-1.2v-0.7c0-1.5-0.2-2.7-0.6-3.8c-0.4-1-0.9-1.8-1.6-2.4
		c-0.7-0.6-1.5-1-2.4-1.3s-1.8-0.4-2.8-0.4c-2,0-3.6,0.5-5,1.6c-1.3,1-2,2.6-2.1,4.8h-7.7c0.1-1.8,0.6-3.4,1.4-4.9
		c0.8-1.5,1.8-2.8,3.2-3.8c1.3-1.1,2.9-1.9,4.6-2.5c1.8-0.6,3.7-0.9,5.9-0.9c2.1,0,4.1,0.3,5.9,0.8c1.8,0.5,3.4,1.4,4.8,2.6
		c1.4,1.2,2.4,2.7,3.2,4.7c0.7,1.9,1.1,4.3,1.1,7.1c0,0.4,0,1,0,1.7s0,1.5,0,2.3s0,1.7,0,2.6s0,1.7,0,2.5c0,2.4,0,4.2,0,6.6
		c0,2.2,0,3.4,0,5.5h-6.8c0-0.8,0-1.2,0-2c0-1.1,0-1.5,0-2.8c-1.1,1.9-2.7,3.3-4.7,4.3c-2,0.9-4.3,1.4-6.9,1.4
		C202.7,100.6,201,100.4,199.4,99.9z M208.4,84.1c-2,0.3-3.6,0.8-4.9,1.3c-1.3,0.5-2.2,1.2-2.8,1.9c-0.6,0.7-0.9,1.6-0.9,2.6
		c0,1.5,0.6,2.7,1.8,3.6s2.8,1.3,4.7,1.3c2.9,0,5.2-0.7,6.8-2.2s2.4-3.7,2.4-6.7v-2.7C212.8,83.4,210.4,83.7,208.4,84.1z"/>
	<path class="st0" d="M237.1,88.7c0.6,1.2,1.3,2.2,2.2,3s1.9,1.4,3,1.8s2.2,0.6,3.3,0.6c2.1,0,3.8-0.4,5.4-1.2c2-1,4-3.5,4-3.5
		l5.3,3.7c0,0-1.8,2.6-3.5,4c-1.3,1.1-2.9,1.9-4.7,2.6s-3.8,1-6.1,1c-2.9,0-5.4-0.5-7.6-1.5c-2.2-1-4.1-2.4-5.6-4.1s-2.7-3.7-3.5-6
		s-1.2-4.7-1.2-7.2c0-2.7,0.4-5.1,1.3-7.3c0.9-2.2,2.1-4.1,3.6-5.7c1.6-1.6,3.4-2.9,5.5-3.8s4.4-1.3,6.9-1.3c2.7,0,5.2,0.5,7.3,1.6
		c2.2,1,4,2.5,5.5,4.3s2.6,4,3.3,6.5s1,5.3,0.9,8.2H236C236.1,86,236.5,87.5,237.1,88.7z M242.5,70.3c-1,0.3-2,0.8-2.9,1.5
		s-1.7,1.6-2.3,2.7c-0.7,1.1-1.1,2.5-1.2,4.2h18.4c0-1.4-0.3-2.6-0.9-3.7c-0.5-1.1-1.2-2-2-2.8c-0.8-0.7-1.8-1.3-2.8-1.7
		s-2.2-0.6-3.3-0.6C244.5,69.8,243.5,69.9,242.5,70.3z"/>
	<path class="st0" d="M136.6,99.5h-7.8V70.4h-12.1v-6.2h32v6.2h-12v29.1H136.6z"/>
</g>
</svg>
